<svg width="512" height="512" viewBox="0 0 512 512" fill="none" xmlns="http://www.w3.org/2000/svg">
<g clip-path="url(#clip0_2325_8648)">
<path d="M237.656 386.344C236.156 384.844 234.121 384.001 232 384.001C229.879 384.001 227.844 384.844 226.344 386.344L212.688 400H208V395.312L221.656 381.656C222.399 380.913 222.988 380.031 223.39 379.061C223.792 378.09 223.999 377.05 223.999 376C223.999 374.949 223.792 373.909 223.39 372.939C222.988 371.968 222.399 371.087 221.656 370.344C220.913 369.601 220.031 369.012 219.061 368.61C218.091 368.208 217.05 368.001 216 368.001C214.95 368.001 213.909 368.208 212.939 368.61C211.969 369.012 211.087 369.601 210.344 370.344L200 380.688L189.656 370.344C188.913 369.601 188.031 369.012 187.061 368.61C186.091 368.208 185.05 368.001 184 368.001C182.95 368.001 181.909 368.208 180.939 368.61C179.969 369.012 179.087 369.601 178.344 370.344C177.601 371.087 177.012 371.968 176.61 372.939C176.208 373.909 176.001 374.949 176.001 376C176.001 377.05 176.208 378.09 176.61 379.061C177.012 380.031 177.601 380.913 178.344 381.656L192 395.312V400H187.312L173.656 386.344C172.913 385.601 172.031 385.012 171.061 384.61C170.091 384.208 169.05 384.001 168 384.001C166.95 384.001 165.909 384.208 164.939 384.61C163.969 385.012 163.087 385.601 162.344 386.344C161.601 387.087 161.012 387.968 160.61 388.939C160.208 389.909 160.001 390.949 160.001 392C160.001 393.05 160.208 394.09 160.61 395.061C161.012 396.031 161.601 396.913 162.344 397.656L172.688 408L162.344 418.344C161.601 419.087 161.012 419.968 160.61 420.939C160.208 421.909 160.001 422.949 160.001 424C160.001 425.05 160.208 426.09 160.61 427.061C161.012 428.031 161.601 428.913 162.344 429.656C163.087 430.399 163.969 430.988 164.939 431.39C165.909 431.792 166.95 431.999 168 431.999C169.05 431.999 170.091 431.792 171.061 431.39C172.031 430.988 172.913 430.399 173.656 429.656L187.312 416H192V420.688L178.344 434.344C176.844 435.844 176.001 437.878 176.001 440C176.001 442.121 176.844 444.156 178.344 445.656C179.844 447.156 181.879 447.999 184 447.999C186.121 447.999 188.156 447.156 189.656 445.656L200 435.312L210.344 445.656C211.085 446.401 211.967 446.993 212.937 447.397C213.908 447.8 214.949 448.008 216 448.008C217.051 448.008 218.092 447.8 219.063 447.397C220.034 446.993 220.915 446.401 221.656 445.656C223.156 444.156 223.998 442.121 223.998 440C223.998 437.878 223.156 435.844 221.656 434.344L208 420.688V416H212.688L226.344 429.656C227.085 430.401 227.967 430.993 228.937 431.397C229.908 431.8 230.949 432.008 232 432.008C233.051 432.008 234.092 431.8 235.063 431.397C236.034 430.993 236.915 430.401 237.656 429.656C239.156 428.156 239.998 426.121 239.998 424C239.998 421.878 239.156 419.844 237.656 418.344L227.312 408L237.656 397.656C239.156 396.156 239.998 394.121 239.998 392C239.998 389.878 239.156 387.844 237.656 386.344Z" fill="url(#paint0_linear_2325_8648)"/>
<path d="M339.312 472L349.656 461.656C350.399 460.913 350.988 460.031 351.39 459.061C351.792 458.09 351.999 457.05 351.999 456C351.999 454.949 351.792 453.909 351.39 452.939C350.988 451.968 350.399 451.087 349.656 450.344C348.913 449.601 348.031 449.012 347.061 448.61C346.091 448.208 345.05 448.001 344 448.001C342.95 448.001 341.909 448.208 340.939 448.61C339.969 449.012 339.087 449.601 338.344 450.344L324.688 464H320V459.312L333.656 445.656C335.156 444.156 335.999 442.121 335.999 440C335.999 437.878 335.156 435.844 333.656 434.344C332.156 432.844 330.121 432.001 328 432.001C325.879 432.001 323.844 432.844 322.344 434.344L312 444.688L301.656 434.344C300.913 433.601 300.031 433.012 299.061 432.61C298.091 432.208 297.05 432.001 296 432.001C294.95 432.001 293.909 432.208 292.939 432.61C291.969 433.012 291.087 433.601 290.344 434.344C289.601 435.087 289.012 435.968 288.61 436.939C288.208 437.909 288.001 438.949 288.001 440C288.001 441.05 288.208 442.09 288.61 443.061C289.012 444.031 289.601 444.913 290.344 445.656L304 459.312V464H299.312L285.656 450.344C284.913 449.601 284.031 449.012 283.061 448.61C282.091 448.208 281.05 448.001 280 448.001C278.95 448.001 277.909 448.208 276.939 448.61C275.969 449.012 275.087 449.601 274.344 450.344C273.601 451.087 273.012 451.968 272.61 452.939C272.208 453.909 272.001 454.949 272.001 456C272.001 457.05 272.208 458.09 272.61 459.061C273.012 460.031 273.601 460.913 274.344 461.656L284.688 472L274.344 482.344C273.601 483.087 273.012 483.968 272.61 484.939C272.208 485.909 272.001 486.949 272.001 488C272.001 489.05 272.208 490.09 272.61 491.061C273.012 492.031 273.601 492.913 274.344 493.656C275.087 494.399 275.969 494.988 276.939 495.39C277.909 495.792 278.95 495.999 280 495.999C281.05 495.999 282.091 495.792 283.061 495.39C284.031 494.988 284.913 494.399 285.656 493.656L299.312 480H304V484.688L290.344 498.344C289.601 499.087 289.012 499.968 288.61 500.939C288.208 501.909 288.001 502.949 288.001 504C288.001 505.05 288.208 506.09 288.61 507.061C289.012 508.031 289.601 508.913 290.344 509.656C291.087 510.399 291.969 510.988 292.939 511.39C293.909 511.792 294.95 511.999 296 511.999C297.05 511.999 298.091 511.792 299.061 511.39C300.031 510.988 300.913 510.399 301.656 509.656L312 499.312L322.344 509.656C323.085 510.401 323.966 510.993 324.937 511.397C325.908 511.8 326.949 512.008 328 512.008C329.051 512.008 330.092 511.8 331.063 511.397C332.034 510.993 332.915 510.401 333.656 509.656C335.156 508.156 335.998 506.121 335.998 504C335.998 501.878 335.156 499.844 333.656 498.344L320 484.688V480H324.688L338.344 493.656C339.085 494.401 339.966 494.993 340.937 495.397C341.908 495.8 342.949 496.008 344 496.008C345.051 496.008 346.092 495.8 347.063 495.397C348.034 494.993 348.915 494.401 349.656 493.656C351.156 492.156 351.998 490.121 351.998 488C351.998 485.878 351.156 483.844 349.656 482.344L339.312 472Z" fill="url(#paint1_linear_2325_8648)"/>
<path d="M128 352C117.144 341.136 88.4 357.656 79.032 367.032C75.6687 370.386 73.3768 374.662 72.4468 379.32C71.5167 383.977 71.9904 388.806 73.8078 393.194C75.6252 397.582 78.7045 401.332 82.6553 403.968C86.6061 406.603 91.2506 408.007 96 408C102.365 407.999 108.468 405.47 112.968 400.968C122.344 391.6 138.856 362.864 128 352Z" fill="url(#paint2_linear_2325_8648)"/>
<path d="M432 376C421.144 365.136 392.4 381.656 383.032 391.032C379.669 394.386 377.377 398.662 376.447 403.32C375.517 407.977 375.99 412.806 377.808 417.194C379.625 421.582 382.704 425.332 386.655 427.968C390.606 430.603 395.251 432.007 400 432C406.365 431.999 412.468 429.47 416.968 424.968C426.344 415.6 442.856 386.864 432 376Z" fill="url(#paint3_linear_2325_8648)"/>
<path d="M424 472C417.368 465.368 402.936 470.439 396.688 476.687C395.16 478.163 393.941 479.929 393.102 481.881C392.264 483.833 391.823 485.933 391.804 488.057C391.786 490.182 392.19 492.288 392.995 494.255C393.799 496.221 394.987 498.008 396.49 499.51C397.992 501.012 399.778 502.2 401.745 503.005C403.711 503.809 405.818 504.214 407.942 504.196C410.067 504.177 412.166 503.736 414.119 502.897C416.071 502.059 417.836 500.84 419.312 499.312C425.56 493.064 430.632 478.64 424 472Z" fill="url(#paint4_linear_2325_8648)"/>
<path d="M312 376C305.368 369.368 290.936 374.439 284.688 380.687C283.16 382.163 281.941 383.929 281.102 385.881C280.264 387.833 279.823 389.933 279.804 392.057C279.786 394.182 280.19 396.288 280.995 398.255C281.799 400.221 282.987 402.008 284.49 403.51C285.992 405.012 287.778 406.2 289.745 407.005C291.711 407.809 293.818 408.214 295.942 408.196C298.067 408.177 300.166 407.736 302.119 406.897C304.071 406.059 305.836 404.84 307.312 403.312C313.56 397.064 318.632 382.64 312 376Z" fill="url(#paint5_linear_2325_8648)"/>
<path d="M224 472C217.368 465.368 202.936 470.439 196.688 476.687C195.16 478.163 193.941 479.929 193.102 481.881C192.264 483.833 191.823 485.933 191.804 488.057C191.786 490.182 192.19 492.288 192.995 494.255C193.799 496.221 194.987 498.008 196.49 499.51C197.992 501.012 199.778 502.2 201.745 503.005C203.711 503.809 205.818 504.214 207.942 504.196C210.067 504.177 212.166 503.736 214.119 502.897C216.071 502.059 217.836 500.84 219.312 499.312C225.56 493.064 230.632 478.64 224 472Z" fill="url(#paint6_linear_2325_8648)"/>
<path d="M144 456C137.368 449.368 122.936 454.439 116.688 460.687C115.16 462.163 113.941 463.929 113.102 465.881C112.264 467.833 111.823 469.933 111.804 472.057C111.786 474.182 112.19 476.288 112.995 478.255C113.799 480.221 114.987 482.008 116.49 483.51C117.992 485.012 119.778 486.2 121.745 487.005C123.711 487.809 125.818 488.214 127.942 488.196C130.067 488.177 132.166 487.736 134.119 486.897C136.071 486.059 137.836 484.84 139.312 483.312C145.56 477.064 150.632 462.64 144 456Z" fill="url(#paint7_linear_2325_8648)"/>
<path d="M440 192.449V192.001C440 130.241 389.76 80.0008 328 80.0008C326.485 80.0008 324.92 80.0408 323.304 80.1208C316.528 56.9351 302.396 36.5813 283.041 22.1293C263.685 7.67728 240.155 -0.0893435 216 0.000775489C166.216 0.000775489 122.16 33.5608 108.456 80.8248C104.326 80.2802 100.165 80.0049 96 80.0008C43.064 80.0008 0 123.065 0 176.001C0 228.937 43.064 272.001 96 272.001H113.368C121.008 318.097 160.48 352.001 208 352.001H432C476.112 352.001 512 316.113 512 272.001C512 230.697 480.544 196.609 440 192.449Z" fill="url(#paint8_linear_2325_8648)"/>
<path d="M440 192.448V192C440 130.24 389.76 80 328 80C278.216 80 234.16 113.56 220.456 160.824C216.326 160.279 212.165 160.004 208 160C155.064 160 112 203.064 112 256C112 308.936 155.064 352 208 352H432C476.112 352 512 316.112 512 272C512 230.696 480.544 196.608 440 192.448Z" fill="url(#paint9_linear_2325_8648)"/>
</g>
<defs>
<linearGradient id="paint0_linear_2325_8648" x1="170.344" y1="437.656" x2="229.656" y2="378.344" gradientUnits="userSpaceOnUse">
<stop stop-color="#78B9EB"/>
<stop offset="1" stop-color="#C2DFF6"/>
</linearGradient>
<linearGradient id="paint1_linear_2325_8648" x1="282.344" y1="501.656" x2="341.656" y2="442.344" gradientUnits="userSpaceOnUse">
<stop stop-color="#78B9EB"/>
<stop offset="1" stop-color="#C2DFF6"/>
</linearGradient>
<linearGradient id="paint2_linear_2325_8648" x1="79.032" y1="400.968" x2="128" y2="352" gradientUnits="userSpaceOnUse">
<stop stop-color="#78B9EB"/>
<stop offset="1" stop-color="#C2DFF6"/>
</linearGradient>
<linearGradient id="paint3_linear_2325_8648" x1="383.032" y1="424.968" x2="432" y2="376" gradientUnits="userSpaceOnUse">
<stop stop-color="#78B9EB"/>
<stop offset="1" stop-color="#C2DFF6"/>
</linearGradient>
<linearGradient id="paint4_linear_2325_8648" x1="396.688" y1="499.312" x2="424" y2="472" gradientUnits="userSpaceOnUse">
<stop stop-color="#78B9EB"/>
<stop offset="1" stop-color="#C2DFF6"/>
</linearGradient>
<linearGradient id="paint5_linear_2325_8648" x1="284.688" y1="403.312" x2="312" y2="376" gradientUnits="userSpaceOnUse">
<stop stop-color="#78B9EB"/>
<stop offset="1" stop-color="#C2DFF6"/>
</linearGradient>
<linearGradient id="paint6_linear_2325_8648" x1="196.688" y1="499.312" x2="224" y2="472" gradientUnits="userSpaceOnUse">
<stop stop-color="#78B9EB"/>
<stop offset="1" stop-color="#C2DFF6"/>
</linearGradient>
<linearGradient id="paint7_linear_2325_8648" x1="116.688" y1="483.312" x2="144" y2="456" gradientUnits="userSpaceOnUse">
<stop stop-color="#78B9EB"/>
<stop offset="1" stop-color="#C2DFF6"/>
</linearGradient>
<linearGradient id="paint8_linear_2325_8648" x1="130.496" y1="346.201" x2="385.504" y2="91.1848" gradientUnits="userSpaceOnUse">
<stop stop-color="#1A6FB0"/>
<stop offset="1" stop-color="#5AAAE7"/>
</linearGradient>
<linearGradient id="paint9_linear_2325_8648" x1="194.496" y1="378.2" x2="433.504" y2="139.184" gradientUnits="userSpaceOnUse">
<stop stop-color="#78B9EB"/>
<stop offset="1" stop-color="#C2DFF6"/>
</linearGradient>
<clipPath id="clip0_2325_8648">
<rect width="512" height="512" fill="white"/>
</clipPath>
</defs>
</svg>
