<svg width="512" height="512" viewBox="0 0 512 512" fill="none" xmlns="http://www.w3.org/2000/svg">
<path d="M240 80V192C240 218.464 218.464 240 192 240H80C53.536 240 32 218.464 32 192V80C32 53.536 53.536 32 80 32H192C218.464 32 240 53.536 240 80ZM288 144H360V224C360 228.243 361.686 232.313 364.686 235.314C367.687 238.314 371.757 240 376 240C380.243 240 384.313 238.314 387.314 235.314C390.314 232.313 392 228.243 392 224V144H464C468.243 144 472.313 142.314 475.314 139.314C478.314 136.313 480 132.243 480 128C480 123.757 478.314 119.687 475.314 116.686C472.313 113.686 468.243 112 464 112H392V48C392 43.7565 390.314 39.6869 387.314 36.6863C384.313 33.6857 380.243 32 376 32C371.757 32 367.687 33.6857 364.686 36.6863C361.686 39.6869 360 43.7565 360 48V112H288C283.757 112 279.687 113.686 276.686 116.686C273.686 119.687 272 123.757 272 128C272 132.243 273.686 136.313 276.686 139.314C279.687 142.314 283.757 144 288 144ZM432 272H320C293.536 272 272 293.536 272 320V432C272 458.464 293.536 480 320 480H432C458.464 480 480 458.464 480 432V320C480 293.536 458.464 272 432 272ZM192 272H80C53.536 272 32 293.536 32 320V432C32 458.464 53.536 480 80 480H192C218.464 480 240 458.464 240 432V320C240 293.536 218.464 272 192 272Z" fill="black"/>
</svg>
